<?xml version="1.0" standalone="no"?>
<!DOCTYPE svg PUBLIC "-//W3C//DTD SVG 20010904//EN"
 "http://www.w3.org/TR/2001/REC-SVG-20010904/DTD/svg10.dtd">
<svg version="1.0" xmlns="http://www.w3.org/2000/svg"
 width="1280.000000pt" height="688.000000pt" viewBox="0 0 1280.000000 688.000000"
 preserveAspectRatio="xMidYMid meet">
<g transform="translate(0.000000,688.000000) scale(0.100000,-0.100000)"
fill="#000000" stroke="none">
<path d="M7979 6876 c-2 -3 -73 -12 -157 -21 -533 -55 -975 -229 -1336 -524
l-88 -73 -82 30 c-335 124 -623 174 -1001 174 -303 0 -538 -33 -807 -112 -636
-186 -1108 -581 -1269 -1061 -33 -100 -59 -229 -59 -299 0 -25 -4 -51 -8 -58
-5 -7 -58 -24 -118 -37 -452 -102 -840 -307 -1110 -584 -157 -161 -258 -319
-323 -503 -45 -130 -63 -243 -63 -393 1 -336 134 -628 408 -900 284 -283 631
-458 1146 -579 27 -6 28 -8 28 -79 1 -735 718 -1364 1725 -1512 215 -32 588
-36 783 -10 334 46 574 118 863 256 l125 61 86 -56 c266 -173 641 -306 1023
-363 184 -27 620 -24 810 5 623 97 1152 377 1445 766 71 95 71 95 171 76 199
-38 543 -51 760 -30 594 59 1112 284 1457 632 216 218 338 444 389 723 23 125
23 232 0 360 -49 274 -174 506 -389 723 l-92 93 56 107 c109 206 148 356 148
562 0 744 -705 1363 -1727 1517 -64 9 -212 18 -363 22 l-255 6 -50 92 c-69
128 -124 201 -239 321 -303 313 -731 526 -1241 616 -198 36 -628 70 -646 52z
m424 -411 c180 -21 309 -49 480 -106 267 -87 492 -217 665 -383 146 -141 217
-248 286 -433 31 -82 85 -138 143 -149 19 -4 115 -1 214 6 720 49 1411 -207
1741 -644 121 -161 180 -327 180 -506 0 -185 -61 -343 -202 -530 -73 -95 -86
-130 -78 -204 7 -60 29 -88 135 -172 228 -182 361 -368 414 -584 28 -110 23
-287 -11 -395 -124 -396 -554 -730 -1121 -869 -377 -92 -757 -94 -1158 -5
-168 38 -232 15 -304 -106 -140 -237 -337 -416 -605 -550 -310 -155 -597 -223
-980 -232 -297 -7 -457 10 -708 77 -252 67 -459 165 -677 322 l-101 73 -71 0
c-67 0 -74 -2 -157 -53 -517 -314 -1211 -404 -1841 -238 -557 147 -965 470
-1087 861 -31 100 -37 238 -15 348 20 103 15 156 -21 208 -36 52 -85 75 -204
93 -690 108 -1222 475 -1352 933 -29 103 -31 276 -4 378 43 163 128 305 268
443 123 123 242 207 413 292 220 109 437 175 703 215 57 8 116 22 131 30 38
19 89 79 97 113 3 15 7 32 9 38 2 5 -3 53 -11 105 -29 194 29 390 173 584 336
451 1097 718 1823 640 293 -31 476 -80 775 -209 68 -29 120 -33 171 -11 20 8
83 60 141 115 125 119 284 228 443 304 240 113 440 167 775 209 83 11 413 6
528 -8z"/>
<path d="M1695 2014 c-151 -34 -306 -131 -392 -247 -90 -121 -128 -237 -127
-387 1 -173 59 -306 189 -435 134 -135 285 -197 480 -197 195 0 346 62 480
197 147 147 211 326 185 518 -35 254 -205 453 -455 533 -103 33 -257 41 -360
18z m325 -176 c135 -49 225 -128 286 -253 92 -188 49 -397 -112 -545 -97 -88
-215 -131 -354 -131 -142 1 -256 46 -356 143 -290 278 -135 732 276 812 58 11
196 -3 260 -26z"/>
<path d="M383 965 c-180 -49 -303 -170 -359 -353 -28 -92 -28 -137 0 -236 36
-129 127 -243 241 -302 65 -34 197 -74 245 -74 45 0 176 37 239 68 68 33 149
106 191 172 94 147 94 363 0 510 -114 178 -352 270 -557 215z m264 -200 c71
-32 116 -74 151 -140 22 -42 27 -63 27 -130 0 -70 -4 -87 -29 -133 -104 -187
-363 -225 -513 -75 -104 104 -118 255 -35 375 88 126 255 169 399 103z"/>
</g>
</svg>
